<mxfile host="app.diagrams.net" modified="2022-02-19T03:10:46.690Z" agent="5.0 (Macintosh; Intel Mac OS X 10_15_7) AppleWebKit/537.36 (KHTML, like Gecko) Chrome/98.0.4758.80 Safari/537.36" etag="zOmzsCc6RQlaexGPPhIQ" version="16.5.6" type="github">
  <diagram id="B58mFrfkIX3h41NQywZV" name="Page-1">
    <mxGraphModel dx="2032" dy="780" grid="1" gridSize="10" guides="1" tooltips="1" connect="1" arrows="1" fold="1" page="1" pageScale="1" pageWidth="827" pageHeight="1169" math="0" shadow="0">
      <root>
        <mxCell id="0" />
        <mxCell id="1" parent="0" />
        <mxCell id="DJm2mmevkv77U6sluzSs-11" style="edgeStyle=orthogonalEdgeStyle;rounded=0;orthogonalLoop=1;jettySize=auto;html=1;exitX=0.5;exitY=1;exitDx=0;exitDy=0;entryX=0.5;entryY=0;entryDx=0;entryDy=0;" parent="1" source="DJm2mmevkv77U6sluzSs-1" target="DJm2mmevkv77U6sluzSs-7" edge="1">
          <mxGeometry relative="1" as="geometry" />
        </mxCell>
        <mxCell id="DJm2mmevkv77U6sluzSs-1" value="&lt;span style=&quot;text-align: left&quot;&gt;course_group&lt;br&gt;&lt;/span&gt;" style="rounded=0;whiteSpace=wrap;html=1;" parent="1" vertex="1">
          <mxGeometry x="90" y="440" width="120" height="60" as="geometry" />
        </mxCell>
        <mxCell id="DJm2mmevkv77U6sluzSs-12" style="edgeStyle=orthogonalEdgeStyle;rounded=0;orthogonalLoop=1;jettySize=auto;html=1;exitX=0.5;exitY=1;exitDx=0;exitDy=0;" parent="1" source="DJm2mmevkv77U6sluzSs-2" target="DJm2mmevkv77U6sluzSs-8" edge="1">
          <mxGeometry relative="1" as="geometry" />
        </mxCell>
        <mxCell id="DJm2mmevkv77U6sluzSs-2" value="course" style="rounded=0;whiteSpace=wrap;html=1;" parent="1" vertex="1">
          <mxGeometry x="250" y="440" width="120" height="60" as="geometry" />
        </mxCell>
        <mxCell id="DJm2mmevkv77U6sluzSs-4" value="&lt;h1&gt;学苑获得的索引&lt;/h1&gt;&lt;p&gt;&lt;/p&gt;&lt;ul&gt;&lt;li&gt;course_group&lt;br&gt;&lt;/li&gt;&lt;li&gt;course&lt;/li&gt;&lt;li&gt;user&lt;/li&gt;&lt;li&gt;zone&lt;/li&gt;&lt;/ul&gt;&lt;p&gt;&lt;/p&gt;" style="text;html=1;strokeColor=none;fillColor=none;spacing=5;spacingTop=-20;whiteSpace=wrap;overflow=hidden;rounded=0;" parent="1" vertex="1">
          <mxGeometry x="40" y="210" width="190" height="120" as="geometry" />
        </mxCell>
        <mxCell id="DJm2mmevkv77U6sluzSs-13" style="edgeStyle=orthogonalEdgeStyle;rounded=0;orthogonalLoop=1;jettySize=auto;html=1;exitX=0.5;exitY=1;exitDx=0;exitDy=0;" parent="1" source="DJm2mmevkv77U6sluzSs-5" target="DJm2mmevkv77U6sluzSs-9" edge="1">
          <mxGeometry relative="1" as="geometry" />
        </mxCell>
        <mxCell id="DJm2mmevkv77U6sluzSs-5" value="user" style="rounded=0;whiteSpace=wrap;html=1;" parent="1" vertex="1">
          <mxGeometry x="414" y="440" width="120" height="60" as="geometry" />
        </mxCell>
        <mxCell id="DJm2mmevkv77U6sluzSs-14" style="edgeStyle=orthogonalEdgeStyle;rounded=0;orthogonalLoop=1;jettySize=auto;html=1;exitX=0.5;exitY=1;exitDx=0;exitDy=0;" parent="1" source="DJm2mmevkv77U6sluzSs-6" target="DJm2mmevkv77U6sluzSs-10" edge="1">
          <mxGeometry relative="1" as="geometry" />
        </mxCell>
        <mxCell id="DJm2mmevkv77U6sluzSs-6" value="zone" style="rounded=0;whiteSpace=wrap;html=1;" parent="1" vertex="1">
          <mxGeometry x="570" y="440" width="120" height="60" as="geometry" />
        </mxCell>
        <mxCell id="DJm2mmevkv77U6sluzSs-7" value="&lt;span style=&quot;text-align: left&quot;&gt;course_group_v1&lt;br&gt;&lt;/span&gt;" style="rounded=0;whiteSpace=wrap;html=1;" parent="1" vertex="1">
          <mxGeometry x="90" y="570" width="120" height="60" as="geometry" />
        </mxCell>
        <mxCell id="DJm2mmevkv77U6sluzSs-8" value="course_v1" style="rounded=0;whiteSpace=wrap;html=1;" parent="1" vertex="1">
          <mxGeometry x="250" y="570" width="120" height="60" as="geometry" />
        </mxCell>
        <mxCell id="DJm2mmevkv77U6sluzSs-9" value="user_v1" style="rounded=0;whiteSpace=wrap;html=1;" parent="1" vertex="1">
          <mxGeometry x="414" y="570" width="120" height="60" as="geometry" />
        </mxCell>
        <mxCell id="DJm2mmevkv77U6sluzSs-10" value="zone_v1" style="rounded=0;whiteSpace=wrap;html=1;" parent="1" vertex="1">
          <mxGeometry x="570" y="570" width="120" height="60" as="geometry" />
        </mxCell>
        <mxCell id="DJm2mmevkv77U6sluzSs-15" value="&lt;h1&gt;测试、生产区分&lt;/h1&gt;&lt;p&gt;生产：user&lt;/p&gt;&lt;p&gt;测试：user_test&lt;/p&gt;" style="text;html=1;strokeColor=none;fillColor=none;spacing=5;spacingTop=-20;whiteSpace=wrap;overflow=hidden;rounded=0;" parent="1" vertex="1">
          <mxGeometry x="310" y="210" width="190" height="120" as="geometry" />
        </mxCell>
        <mxCell id="5wqTViL1DBrhUapVJzSg-1" value="&lt;span style=&quot;text-align: left&quot;&gt;course_group_v1_test&lt;br&gt;&lt;/span&gt;" style="rounded=0;whiteSpace=wrap;html=1;" vertex="1" parent="1">
          <mxGeometry x="90" y="650" width="120" height="60" as="geometry" />
        </mxCell>
        <mxCell id="5wqTViL1DBrhUapVJzSg-2" value="course_v1&lt;span style=&quot;text-align: left&quot;&gt;_test&lt;/span&gt;" style="rounded=0;whiteSpace=wrap;html=1;" vertex="1" parent="1">
          <mxGeometry x="250" y="650" width="120" height="60" as="geometry" />
        </mxCell>
        <mxCell id="5wqTViL1DBrhUapVJzSg-3" value="user_v1&lt;span style=&quot;text-align: left&quot;&gt;_test&lt;/span&gt;" style="rounded=0;whiteSpace=wrap;html=1;" vertex="1" parent="1">
          <mxGeometry x="414" y="650" width="120" height="60" as="geometry" />
        </mxCell>
        <mxCell id="5wqTViL1DBrhUapVJzSg-4" value="zone_v1&lt;span style=&quot;text-align: left&quot;&gt;_test&lt;/span&gt;" style="rounded=0;whiteSpace=wrap;html=1;" vertex="1" parent="1">
          <mxGeometry x="570" y="650" width="120" height="60" as="geometry" />
        </mxCell>
        <mxCell id="5wqTViL1DBrhUapVJzSg-5" value="测试环境&lt;br&gt;后缀：_test" style="text;html=1;strokeColor=none;fillColor=none;align=center;verticalAlign=middle;whiteSpace=wrap;rounded=0;" vertex="1" parent="1">
          <mxGeometry x="720" y="665" width="70" height="30" as="geometry" />
        </mxCell>
      </root>
    </mxGraphModel>
  </diagram>
</mxfile>
